<svg width="497" height="242" viewBox="0 0 497 242" xmlns="http://www.w3.org/2000/svg" xmlns:xlink="http://www.w3.org/1999/xlink"><defs><path id="a" d="M0 .638h101.368V117.91H0z"/></defs><g fill="none" fill-rule="evenodd"><path d="M402.098 87.292a51.484 51.484 0 0117.664-2.75h18.397a50.929 50.929 0 0117.638 2.75 28.502 28.502 0 0112.422 8.44 35.984 35.984 0 017.034 14.457 80.743 80.743 0 012.294 20.534 80.645 80.645 0 01-2.207 20.526 35.542 35.542 0 01-7.138 14.405c-6.38 7.362-16.354 11.043-29.949 11.06h-18.387a52.888 52.888 0 01-17.768-2.672 29.017 29.017 0 01-12.482-8.284 35.389 35.389 0 01-6.992-14.328 80.52 80.52 0 01-2.293-20.5c0-16.086 3.147-27.819 9.448-35.215a28.889 28.889 0 0112.423-8.423h-.104zm79.75-5.845c-10.026-10.724-24.586-16.077-43.69-16.077h-18.396a72.535 72.535 0 00-25.362 4.017 46.993 46.993 0 00-18.328 12.06c-10.069 10.716-15.094 27.216-15.094 49.483 0 22.267 5.025 38.62 15.094 49.078a46.896 46.896 0 0018.328 11.896 73.584 73.584 0 0025.362 4.026h18.397a73.584 73.584 0 0025.362-4.026 46.896 46.896 0 0018.327-11.896 50.034 50.034 0 0011.276-20.095 98.194 98.194 0 003.82-29.009 99.665 99.665 0 00-3.777-29.18 51.25 51.25 0 00-11.276-20.277h-.043zM309.883 195.904h19.215V65.266h-19.215v130.638zm-32.38-111.362V65.344H223.72a64.612 64.612 0 00-22.103 3.353 44.865 44.865 0 00-8.225 4.026 33.726 33.726 0 00-11.31 11.552 35.85 35.85 0 00-3.319 7.457 59.298 59.298 0 00-2.595 18.095v86.077h19.199v-53.379h81.336v-17.991h-81.38v-14.992c0-1.655.13-3.31.38-4.948.224-1.56.577-3.112 1.043-4.62a19.325 19.325 0 015.069-8.035 20.91 20.91 0 014.198-3.12 27.814 27.814 0 015.25-2.285 44.47 44.47 0 0114.069-2.018l52.172.026z" fill="#FEFEFE"/><path d="M57.528 155.82v80.38c0 4.266-2.681 6.31-5.992 4.508L6.071 215.777a13.701 13.701 0 01-6.026-11.043V126.19c.664.534 1.37 1 2.112 1.413l55.37 28.216z" fill="#425CC7"/><g transform="translate(0 -.015)"><mask id="b" fill="#fff"><use xlink:href="#a"/></mask><path d="M5.084 117.425l91.275-46.802a10.757 10.757 0 005.01-8.853V4.882c0-3.526-2.26-5.147-5.01-3.741L12.247 44.278C3.567 48.934-.45 51.123.041 60.96v52.725c0 3.353 2.293 5.155 5.043 3.741" fill="#005CB9" mask="url(#b)"/></g><path d="M5.084 52.304l91.275 46.802a10.808 10.808 0 015.01 8.888v56.853c0 3.526-2.26 5.181-5.01 3.776l-91.275-46.81a10.791 10.791 0 01-5.043-8.88v-56.86c0-3.483 2.293-5.181 5.043-3.768" fill="#3CB4E5"/><path d="M5.084 117.41l63.482-32.55L5.084 52.307a3.196 3.196 0 00-3.526 0 12.515 12.515 0 00-1.517 5.5v55.12c.034 1.216.284 2.406.74 3.535a3 3 0 004.104 1.078c.06-.043.13-.087.199-.13" fill="#00A0DF"/></g></svg>